<svg width="178" height="178" viewBox="0 0 178 178" fill="none" xmlns="http://www.w3.org/2000/svg">
<path d="M22.25 33.375V144.572" stroke="#CCCCCC" stroke-width="15.992" stroke-linecap="round"/>
<path d="M155.75 66.75V144.625" stroke="#CCCCCC" stroke-width="15.992" stroke-linecap="round" stroke-linejoin="round"/>
<path d="M44.5 11.125H100.125" stroke="#CCCCCC" stroke-width="15.992" stroke-linecap="round" stroke-linejoin="round"/>
<path d="M44.5 166.875H133.5" stroke="#CCCCCC" stroke-width="15.992" stroke-linecap="round"/>
<path d="M155.75 144.625C155.811 155.737 144.625 166.875 133.5 166.875" stroke="#CCCCCC" stroke-width="15.992" stroke-linecap="round" stroke-linejoin="round"/>
<path d="M22.25 144.625C22.25 155.75 33.375 166.875 44.5 166.875" stroke="#CCCCCC" stroke-width="15.992" stroke-linecap="round" stroke-linejoin="round"/>
<path d="M22.25 33.3589C22.25 22.25 33.375 11.3728 44.5 11.125" stroke="#CCCCCC" stroke-width="15.992" stroke-linecap="round" stroke-linejoin="round"/>
<path d="M155.689 66.7999L100.125 11.125" stroke="#CCCCCC" stroke-width="15.992" stroke-linecap="round" stroke-linejoin="round"/>
<path d="M100.125 44.5C100.159 55.5645 111.295 66.75 122.375 66.75" stroke="#CCCCCC" stroke-width="15.992" stroke-linecap="round" stroke-linejoin="round"/>
<path d="M100.125 44.5V11.125" stroke="#CCCCCC" stroke-width="15.992" stroke-linecap="round" stroke-linejoin="round"/>
<path d="M122.375 66.75H155.75" stroke="#CCCCCC" stroke-width="15.992" stroke-linecap="round" stroke-linejoin="round"/>
<path d="M44.5 144.625L77.875 100.125" stroke="#CCCCCC" stroke-width="16" stroke-linecap="round" stroke-linejoin="round"/>
<path d="M44.5 100.125L77.875 144.625" stroke="#CCCCCC" stroke-width="16" stroke-linecap="round" stroke-linejoin="round"/>
</svg>
